<svg width="20" height="18" viewBox="0 0 20 18" fill="none" xmlns="http://www.w3.org/2000/svg">
<path d="M19.5467 2.7025C19.2326 2.84184 18.9095 2.95945 18.5794 3.05496C18.9702 2.61301 19.2681 2.09301 19.45 1.52399C19.4908 1.39645 19.4485 1.25684 19.3437 1.17341C19.239 1.08993 19.0935 1.07993 18.9782 1.14825C18.2773 1.56399 17.521 1.86278 16.728 2.03747C15.9293 1.25696 14.8444 0.812744 13.7228 0.812744C11.3554 0.812744 9.42935 2.73875 9.42935 5.10609C9.42935 5.29253 9.44115 5.47796 9.46451 5.66081C6.52679 5.40288 3.79563 3.95894 1.92017 1.65837C1.85333 1.57637 1.75036 1.53216 1.64493 1.54063C1.53946 1.54887 1.44466 1.60837 1.39138 1.69981C1.01099 2.3525 0.809896 3.09902 0.809896 3.85859C0.809896 4.89312 1.17923 5.87464 1.83169 6.64163C1.63329 6.57292 1.44079 6.48706 1.25704 6.38507C1.15841 6.33014 1.03802 6.331 0.940013 6.38717C0.841967 6.44339 0.780483 6.54671 0.777865 6.65967C0.777397 6.6787 0.777397 6.69772 0.777397 6.71702C0.777397 8.26119 1.60849 9.65146 2.87915 10.4092C2.76997 10.3983 2.66091 10.3825 2.55251 10.3618C2.44075 10.3404 2.32587 10.3796 2.25052 10.4648C2.17505 10.55 2.15005 10.6687 2.18485 10.7771C2.65516 12.2455 3.86606 13.3255 5.32992 13.6548C4.11578 14.4153 2.72735 14.8136 1.26982 14.8136C0.965677 14.8136 0.659819 14.7957 0.360484 14.7603C0.211774 14.7426 0.0695869 14.8304 0.018923 14.9719C-0.0317408 15.1134 0.0219699 15.2711 0.148454 15.3522C2.02091 16.5528 4.18598 17.1873 6.40952 17.1873C10.7807 17.1873 13.5152 15.126 15.0394 13.3968C16.9401 11.2406 18.0301 8.38666 18.0301 5.56675C18.0301 5.44894 18.0283 5.32999 18.0247 5.2114C18.7746 4.64644 19.4201 3.96269 19.9455 3.17684C20.0253 3.0575 20.0167 2.89973 19.9242 2.78988C19.832 2.67985 19.6781 2.6443 19.5467 2.7025Z" fill="#50ABF1"/>
</svg>
