<svg width="18" height="18" viewBox="0 0 18 18" fill="none" xmlns="http://www.w3.org/2000/svg">
<path d="M9 18C13.9706 18 18 13.9706 18 9C18 4.02944 13.9706 0 9 0C4.02944 0 0 4.02944 0 9C0 13.9706 4.02944 18 9 18Z" fill="#E94043"/>
<path d="M12.7364 8.74969C13.0542 8.22784 13.5671 8.22784 13.885 8.74969L15.8643 12.0524C16.1822 12.5743 15.9221 13 15.2864 13H11.2988C10.6703 13 10.4102 12.5743 10.7209 12.0524L12.7364 8.74969ZM8.90763 2.39139C9.22549 1.86954 9.73117 1.86954 10.049 2.39139L10.4897 3.14669L11.5299 4.8839C11.7828 5.37828 11.7828 5.96192 11.5299 6.45631L8.04075 12.2035C7.7229 12.6704 7.19555 12.9657 6.6104 13H3.71358C3.07787 13 2.8178 12.5811 3.13566 12.0524L8.90763 2.39139Z" fill="white"/>
</svg>
